HIERARCHY
ROOT Hips
{
	OFFSET -3.958830 18.904000 13.208200
	CHANNELS 6 Xposition Yposition Zposition Zrotation Yrotation Xrotation 
	JOINT LHipJoint
	{
		OFFSET 0.000000 0.000000 0.000000
		CHANNELS 3 Zrotation Yrotation Xrotation
		JOINT LeftUpLeg
		{
			OFFSET 1.800000 -1.400000 0.085000
			CHANNELS 3 Zrotation Yrotation Xrotation
			JOINT LeftLeg
			{
				OFFSET 2.215000 -6.000000 0.000000
				CHANNELS 3 Zrotation Yrotation Xrotation
				JOINT LeftFoot
				{
					OFFSET 2.500000 -6.900000 0.000000
					CHANNELS 3 Zrotation Yrotation Xrotation
					JOINT LeftToeBase
					{
						OFFSET 0.200000 -0.500000 1.950000
						CHANNELS 3 Zrotation Yrotation Xrotation
						End Site
						{
							OFFSET 0.000000 0.000000 0.000000
						}
					}
				}
			}
		}
	}
	JOINT RHipJoint
	{
		OFFSET 0.000000 0.000000 0.000000
		CHANNELS 3 Zrotation Yrotation Xrotation
		JOINT RightUpLeg
		{
			OFFSET -1.800000 -1.400000 0.085000
			CHANNELS 3 Zrotation Yrotation Xrotation
			JOINT RightLeg
			{
				OFFSET -2.215000 -6.000000 0.000000
				CHANNELS 3 Zrotation Yrotation Xrotation
				JOINT RightFoot
				{
					OFFSET -2.500000 -6.900000 0.000000
					CHANNELS 3 Zrotation Yrotation Xrotation
					JOINT RightToeBase
					{
						OFFSET -0.200000 -0.500000 1.950000
						CHANNELS 3 Zrotation Yrotation Xrotation
						End Site
						{
							OFFSET 0.000000 0.000000 0.000000
						}
					}
				}
			}
		}
	}
	JOINT LowerBack
	{
		OFFSET 0.000000 0.000000 0.000000
		CHANNELS 3 Zrotation Yrotation Xrotation
		JOINT Spine
		{
			OFFSET -0.087000 1.940000 -0.288900
			CHANNELS 3 Zrotation Yrotation Xrotation
			JOINT Spine1
			{
				OFFSET 0.000000 1.950000 0.060000
				CHANNELS 3 Zrotation Yrotation Xrotation
				JOINT Neck
				{
					OFFSET 0.000000 0.000000 0.000000
					CHANNELS 3 Zrotation Yrotation Xrotation
					JOINT Neck1
					{
						OFFSET 0.000000 1.600000 0.340000
						CHANNELS 3 Zrotation Yrotation Xrotation
						JOINT Head
						{
							OFFSET 0.000000 1.667000 -0.240000
							CHANNELS 3 Zrotation Yrotation Xrotation
							End Site
							{
								OFFSET 0.000000 0.000000 0.000000
							}
						}
					}
				}
				JOINT LeftShoulder
				{
					OFFSET 0.000000 0.000000 0.000000
					CHANNELS 3 Zrotation Yrotation Xrotation
					JOINT LeftArm
					{
						OFFSET 2.700000 1.550000 -0.730000
						CHANNELS 3 Zrotation Yrotation Xrotation
						JOINT LeftForeArm
						{
							OFFSET 5.450000 0.000000 0.000000
							CHANNELS 3 Zrotation Yrotation Xrotation
							JOINT LeftHand
							{
								OFFSET 3.450000 0.000000 0.000000
								CHANNELS 3 Zrotation Yrotation Xrotation
								JOINT LeftHandIndex1
								{
									OFFSET 0.750000 0.000000 0.000000
									CHANNELS 3 Zrotation Yrotation Xrotation
									End Site
									{
										OFFSET 0.000000 0.000000 0.000000
									}
								}
							}
						}
					}
				}
				JOINT RightShoulder
				{
					OFFSET 0.000000 0.000000 0.000000
					CHANNELS 3 Zrotation Yrotation Xrotation
					JOINT RightArm
					{
						OFFSET -2.700000 1.550000 -0.730000
						CHANNELS 3 Zrotation Yrotation Xrotation
						JOINT RightForeArm
						{
							OFFSET -5.450000 0.000000 0.000000
							CHANNELS 3 Zrotation Yrotation Xrotation
							JOINT RightHand
							{
								OFFSET -3.450000 0.000000 0.000000
								CHANNELS 3 Zrotation Yrotation Xrotation
								JOINT RightHandIndex1
								{
									OFFSET -0.750000 0.000000 0.000000
									CHANNELS 3 Zrotation Yrotation Xrotation
									End Site
									{
										OFFSET 0.000000 0.000000 0.000000
									}
								}
							}
						}
					}
				}
			}
		}
	}
}
MOTION
Frames: 4
Frame Time: 0.016667
-0.039700 17.370540 -3.003420 -11.066341 -19.778059 2.840269 -15.020061 12.343506 1.288088 10.544898 -1.626229 -14.714237 0.573130 5.085198 20.358589 -0.907647 3.998730 3.252770 0.542080 0.287610 0.326250 18.874083 -8.065603 6.425919 -16.345833 10.916612 -61.525848 8.609980 -35.581072 93.757899 -3.750280 -17.571619 -0.455634 0.160460 0.161250 0.049070 -4.843694 -2.706555 -8.504516 19.988269 -10.575543 19.001974 -6.972930 -6.318488 15.676468 2.182575 -5.658847 -12.124219 -17.268043 8.100697 50.221324 -4.852810 3.993030 -19.643810 -16.797322 -7.866505 5.515487 -0.229688 17.687612 -2.023275 -137.105443 -58.127586 97.597098 -3.569726 3.145046 0.940930 0.013970 0.096380 0.229770 12.974907 8.442112 8.296184 15.614518 -21.351531 -9.823918 49.484869 55.230818 19.392509 1.646329 -1.631536 -0.338080 0.486060 -0.042920 -0.327380 
-0.024190 17.290600 -3.034520 -12.168320 -21.577996 2.782276 -15.025226 12.390488 1.278972 11.535082 -1.601633 -15.421327 0.709877 5.514501 22.670488 -0.868496 4.345761 3.168410 0.491520 0.219020 0.257880 18.852215 -8.035265 6.455835 -15.461565 12.215173 -61.156236 8.461029 -36.531733 95.834178 -3.871486 -18.016822 -0.498669 0.146940 0.248500 -0.001840 -4.831209 -2.767431 -8.526980 20.801476 -10.884394 21.426252 -6.820920 -6.245502 14.335856 1.977459 -7.174393 -12.307397 -20.108869 9.640329 46.961022 -1.963400 3.605500 -18.635440 -17.267123 -7.705548 5.598427 -1.409744 18.310819 -2.593796 -136.941853 -58.652594 97.444099 -3.577525 3.098815 0.947820 0.021740 0.039350 0.266410 13.844807 9.501426 8.458967 14.911082 -21.347898 -9.962344 46.562911 56.178175 18.578407 1.642411 -1.616203 -0.408990 0.551620 -0.029680 -0.309240 
-0.009130 17.188480 -3.073240 -12.910280 -23.979378 1.680348 -15.050188 12.561757 1.346635 12.212493 -1.475062 -15.916195 0.917354 6.151714 26.336630 -0.721140 4.787906 2.981787 0.549610 0.310840 0.269040 18.770052 -8.139176 6.309507 -13.594724 13.438832 -58.036201 6.910161 -36.624013 99.043696 -4.028128 -18.385637 -0.548365 0.174970 0.198660 -0.011570 -4.683338 -2.908315 -8.545126 20.329140 -10.701739 25.360339 -6.131865 -5.958690 13.054203 1.853183 -8.238309 -12.152020 -22.007738 10.002889 44.069188 -1.080330 3.292410 -19.969920 -18.169063 -7.574290 5.288144 -3.087685 17.344164 -3.736355 -136.786555 -58.496541 96.161720 -3.487042 3.168561 0.920250 -0.025130 0.070010 0.301130 14.998728 10.436360 8.473439 15.689226 -21.029745 -10.981386 41.064197 57.690701 16.525001 1.658683 -1.668337 -0.356750 0.513410 -0.098900 -0.274910 
-0.011670 17.080690 -3.098200 -13.080902 -26.936617 0.378168 -15.091460 12.798209 1.528578 12.509738 -1.458928 -16.739268 1.137155 7.023158 31.171125 -0.558746 5.557260 2.694606 0.495120 0.245820 0.241180 18.655175 -8.323418 6.012079 -10.513560 14.415286 -53.124808 3.839395 -34.467771 101.905619 -4.020496 -18.298229 -0.515508 0.122530 0.214570 0.005970 -4.438427 -3.130080 -8.587923 18.560597 -9.865127 29.025832 -5.559488 -5.269292 11.274317 2.009039 -8.095330 -12.147377 -21.241207 9.935428 42.952886 -2.182740 4.132300 -18.856640 -19.371445 -8.081607 5.287308 -5.909727 16.556383 -5.130005 -135.817147 -58.668726 93.993986 -3.502299 3.166070 0.901280 -0.004750 0.059290 0.291960 15.836047 11.333964 8.573696 18.640516 -19.945646 -12.682380 34.367939 58.217055 13.546808 1.642574 -1.635676 -0.351500 0.484320 -0.081350 -0.269100 
